<svg width="1200" height="1674" viewBox="0 0 1200 1674" fill="none" xmlns="http://www.w3.org/2000/svg">
<rect x="6" y="6" width="1188" height="1662" fill="white" stroke="black" stroke-width="12"/>
<rect x="40" y="41" width="1119" height="1592" fill="black"/>
<path d="M80 77H1119V290H80V77Z" fill="white"/>
<path d="M80 331H1119V1370H80V331Z" fill="white"/>
<path d="M465.308 1246.38L475.569 1274.57L503.76 1264.31L932.527 1108.25L960.717 1097.99L950.457 1069.8L924.454 998.356L914.194 970.165L886.003 980.426L643.061 1068.85L588.051 917.71L815.229 835.024L843.42 824.763L833.159 796.572L807.157 725.131L796.896 696.94L768.705 707.2L541.527 789.886L492.089 654.056L735.03 565.632L763.221 555.372L752.96 527.181L726.958 455.739L716.697 427.549L688.506 437.809L259.739 593.868L231.549 604.128L241.809 632.319L465.308 1246.38Z" fill="black" stroke="black" stroke-width="60"/>
<path d="M76.5 1588.54V1592.04H80H271.961H275.461V1588.54V1568.05V1564.55H271.961H154.074V1512.05H264.903H268.403V1508.55V1488.06V1484.56H264.903H154.074V1436.45H271.961H275.461V1432.95V1412.46V1408.96H271.961H80H76.5V1412.46V1588.54ZM312.491 1534.07H308.991V1537.57V1558.54C308.991 1565.4 312.534 1571.05 318.321 1575.49C324.028 1579.87 332.118 1583.27 341.937 1585.88C361.608 1591.12 389.314 1593.5 421.88 1593.5C463.974 1593.5 493.295 1589.54 512.207 1581.87C521.706 1578.02 528.79 1573.15 533.501 1567.17C538.255 1561.13 540.415 1554.19 540.415 1546.59C540.415 1540.93 539.567 1535.78 536.924 1530.93C534.293 1526.1 530.063 1521.88 523.862 1517.74C511.617 1509.56 490.714 1501.07 456.237 1488.67C423.723 1476.95 406.087 1469.38 396.58 1463.37C391.864 1460.39 389.448 1457.97 388.165 1455.87C386.94 1453.88 386.565 1451.89 386.565 1449.29C386.565 1446.47 387.244 1444.29 388.481 1442.52C389.736 1440.72 391.745 1439.1 394.812 1437.73C401.072 1434.94 411.032 1433.52 425.409 1433.52C439.027 1433.52 448.344 1434.98 454.132 1437.42C456.992 1438.63 458.802 1439.99 459.886 1441.36C460.929 1442.67 461.43 1444.13 461.43 1445.87V1459.77V1463.27H464.93H531.27H534.77V1459.77V1443.19C534.77 1436.06 532.296 1430.52 527.993 1426.28C523.812 1422.16 518.098 1419.45 511.886 1417.43L511.873 1417.42L511.86 1417.42C494.475 1411.91 466.569 1407.5 428.232 1407.5C389.686 1407.5 360.263 1410.6 340.367 1417.51C330.396 1420.97 322.561 1425.47 317.193 1431.25C311.748 1437.12 308.991 1444.14 308.991 1452.21C308.991 1466.24 319.986 1476.65 335.117 1485.2C350.441 1493.86 371.399 1501.39 393.919 1509.17L393.929 1509.18C430.75 1521.78 449.18 1529.15 458.454 1535.09C462.995 1538 464.953 1540.33 465.916 1542.44C466.911 1544.61 467.076 1547 467.076 1550.74C467.076 1553.13 466.602 1555.17 465.548 1556.95C464.497 1558.72 462.718 1560.48 459.697 1562.05C453.505 1565.27 442.569 1567.48 423.997 1567.48C410.084 1567.48 400.483 1565.66 394.488 1562.72C388.706 1559.88 386.565 1556.19 386.565 1551.96V1537.57V1534.07H383.065H312.491ZM595.603 1588.54V1592.04H599.103H669.677H673.177V1588.54V1515.46H693.672C705.28 1515.46 714.419 1515.74 721.605 1516.39C728.826 1517.05 733.859 1518.08 737.365 1519.48C740.783 1520.84 742.569 1522.49 743.608 1524.36C744.706 1526.34 745.219 1529.02 745.219 1532.93V1572.69C745.219 1576.4 745.578 1579.91 747.162 1583.15C748.773 1586.45 751.451 1589.09 755.34 1591.51L756.189 1592.04H757.188H823.528H829.597L826.557 1586.78C822.865 1580.41 822.793 1572.59 822.793 1566.1V1527.81C822.793 1523.06 821.617 1518.67 818.849 1514.82C816.108 1511.01 812.001 1508 806.587 1505.62C800.883 1503.11 793.498 1501.21 784.206 1499.85C796.876 1497.33 805.905 1494.17 812.221 1490.01C817.537 1486.51 820.977 1482.27 823.025 1477.18C825.034 1472.19 825.616 1466.6 825.616 1460.51C825.616 1450.82 824.971 1442.4 822.088 1435.41C819.113 1428.2 813.884 1422.78 805.415 1418.86C797.11 1415.01 785.657 1412.57 770.051 1411.07C754.398 1409.56 734.283 1408.96 708.492 1408.96H599.103H595.603V1412.46V1588.54ZM887.547 1588.54V1592.04H891.047H1001.85C1027.66 1592.04 1048 1591.27 1064 1589.52C1079.97 1587.76 1091.84 1584.99 1100.57 1580.85C1109.41 1576.64 1115.06 1570.99 1118.37 1563.64C1121.62 1556.45 1122.5 1547.95 1122.5 1538.3C1122.5 1530.64 1121.79 1524.09 1119.61 1518.58C1117.37 1512.94 1113.66 1508.6 1108.08 1505.29C1102.61 1502.05 1095.43 1499.86 1086.27 1498.23C1085.68 1498.12 1085.08 1498.02 1084.47 1497.92C1091.89 1496.52 1098.11 1494.53 1103.15 1491.52C1108.81 1488.15 1112.85 1483.55 1115.41 1477.42C1117.94 1471.39 1118.97 1464.03 1118.97 1455.14C1118.97 1446.89 1118.03 1439.56 1114.93 1433.33C1111.77 1426.98 1106.54 1422.14 1098.66 1418.55C1090.89 1415 1080.47 1412.63 1066.73 1411.13C1052.95 1409.62 1035.6 1408.96 1013.85 1408.96H891.047H887.547V1412.46V1588.54ZM688.026 1487.98H673.177V1436.45H703.552C714.498 1436.45 722.811 1436.6 729.172 1437.22C735.589 1437.84 739.588 1438.91 742.17 1440.44C744.531 1441.84 745.943 1443.77 746.824 1446.95C747.764 1450.34 748.042 1454.95 748.042 1461.48C748.042 1467.99 747.545 1472.6 746.203 1475.99C744.949 1479.17 742.894 1481.45 739.197 1483.19C735.314 1485.02 729.617 1486.26 721.164 1487.01C712.761 1487.75 701.954 1487.98 688.026 1487.98ZM1005.38 1566.01H965.121V1510.58H1007.49C1017.18 1510.58 1024.66 1510.83 1030.48 1511.58C1036.32 1512.33 1040.13 1513.56 1042.69 1515.27C1047.43 1518.43 1049.16 1524.15 1049.16 1537.57C1049.16 1551.55 1047.27 1557.66 1042.17 1561.05C1039.42 1562.87 1035.39 1564.17 1029.28 1564.96C1023.2 1565.75 1015.41 1566.01 1005.38 1566.01ZM1002.55 1484.56H965.121V1434.99H994.79C1006.04 1434.99 1014.94 1435.29 1021.96 1436.04C1029.02 1436.79 1033.96 1437.97 1037.41 1439.59C1040.76 1441.16 1042.67 1443.11 1043.84 1445.55C1045.07 1448.12 1045.63 1451.56 1045.63 1456.36C1045.63 1463.56 1045.36 1468.75 1044.41 1472.62C1043.5 1476.33 1042.04 1478.55 1039.75 1480.11C1037.29 1481.79 1033.48 1482.97 1027.3 1483.68C1021.17 1484.38 1013.14 1484.56 1002.55 1484.56Z" fill="white" stroke="white" stroke-width="7"/>
<path d="M657.885 1176V1127.47H609.355V1108.15H657.885V1059.62H677.205V1108.15H725.735V1127.47H677.205V1176H657.885Z" fill="white"/>
<rect x="310" y="906.507" width="203.226" height="413.181" transform="rotate(-20 310 906.507)" fill="white"/>
<path fill-rule="evenodd" clip-rule="evenodd" d="M500.97 837L310 906.507L355.56 1031.68H347.939C342.327 1039.34 332.775 1047.24 319.283 1055.38C305.79 1063.52 290.03 1070.45 272 1076.18V1097.21C282.03 1094.71 293.313 1090.97 305.85 1085.97C318.507 1080.97 328.715 1075.97 336.476 1070.98V1209.66H368.715V1067.82L451.316 1294.77L642.286 1225.26L500.97 837ZM368.715 1067.82V1031.68H355.56L368.715 1067.82ZM424.272 1071.7C417.943 1084.44 414.779 1101.28 414.779 1122.24C414.779 1155.53 423.436 1179.55 440.749 1194.3C455.197 1206.56 475.077 1212.68 500.39 1212.68C519.613 1212.68 535.493 1209.22 548.031 1202.28C560.687 1195.27 570.179 1185.4 576.508 1172.66C582.836 1159.84 586 1143.04 586 1122.24C586 1104.67 584.03 1090.72 580.09 1080.41C576.149 1070.01 570.717 1061.22 563.791 1054.05C556.866 1046.79 548.09 1041.27 537.464 1037.48C526.837 1033.62 514.479 1031.68 500.39 1031.68C481.286 1031.68 465.405 1035.15 452.749 1042.08C440.212 1049.01 430.719 1058.89 424.272 1071.7ZM462.958 1180.4C452.928 1170.73 447.913 1151.34 447.913 1122.24C447.913 1093.14 453.465 1073.19 464.569 1062.39C473.405 1053.93 485.226 1049.7 500.031 1049.7C515.076 1049.7 527.613 1054.49 537.643 1064.08C547.792 1073.68 552.866 1093.06 552.866 1122.24C552.866 1151.26 547.792 1170.61 537.643 1180.28C527.613 1189.95 515.195 1194.79 500.39 1194.79C485.584 1194.79 473.107 1189.99 462.958 1180.4Z" fill="black"/>
<path d="M95.5637 266V99.94H158.124V119.26H118.564V171.24H155.824V190.56H118.564V246.68H158.124V266H95.5637ZM195.253 266L161.443 99.94H184.443L208.363 231.96H208.823L232.743 99.94H255.743L221.933 266H195.253ZM266.042 266V99.94H328.602V119.26H289.042V171.24H326.302V190.56H289.042V246.68H328.602V266H266.042ZM338.591 266V99.94H374.241C407.821 99.94 411.271 108.91 411.271 145.25C411.271 167.56 408.281 177.22 389.421 182.97V183.43C405.061 185.04 410.351 193.09 410.351 208.73V244.84C410.351 250.82 410.351 259.1 411.731 266H390.111C387.811 261.86 387.351 257.72 387.351 251.05V213.56C387.351 197.92 384.591 193.78 369.411 193.78H361.591V266H338.591ZM361.591 119.26V174.46H367.571C385.741 174.46 388.271 171.01 388.271 146.17C388.271 121.56 386.891 119.26 372.631 119.26H361.591ZM444.558 197.92L412.818 99.94H435.818L455.828 169.86H456.288L479.288 99.94H499.528L467.558 197.92V266H444.558V197.92ZM526.887 140.42V227.59C526.887 241.85 533.327 249.44 542.757 249.44C552.417 249.44 558.857 241.85 558.857 227.59V140.42C558.857 124.09 553.337 116.5 542.757 116.5C532.407 116.5 526.887 124.09 526.887 140.42ZM503.887 226.21V142.26C503.887 119.03 511.477 98.56 542.757 98.56C572.427 98.56 581.857 113.97 581.857 139.73V223.68C581.857 246.91 574.267 267.38 542.757 267.38C513.317 267.38 503.887 251.97 503.887 226.21ZM598.239 266V99.94H629.979L657.119 237.94H657.579V99.94H679.199V266H646.079L618.939 124.32H618.479V266H598.239ZM696.169 266V99.94H758.729V119.26H719.169V171.24H756.429V190.56H719.169V246.68H758.729V266H696.169ZM839.684 266V131.22H839.224C834.394 137.66 830.024 141.8 821.284 148.47V126.85C826.574 122.94 838.994 107.3 841.984 99.94H861.304V266H839.684ZM918.59 135.82V230.12C918.59 240.47 918.59 250.82 931.24 250.82C943.89 250.82 943.89 240.47 943.89 230.12V135.82C943.89 125.47 943.89 115.12 931.24 115.12C918.59 115.12 918.59 125.47 918.59 135.82ZM896.97 226.44V139.5C896.97 109.6 903.87 98.56 931.24 98.56C958.61 98.56 965.51 109.6 965.51 139.5V226.44C965.51 256.34 958.61 267.38 931.24 267.38C903.87 267.38 896.97 256.34 896.97 226.44ZM1033.38 266V217.47H984.846V198.15H1033.38V149.62H1052.7V198.15H1101.23V217.47H1052.7V266H1033.38Z" fill="black"/>
</svg>
