<svg width="1200" height="1674" viewBox="0 0 1200 1674" fill="none" xmlns="http://www.w3.org/2000/svg">
<rect x="6" y="6" width="1188" height="1662" fill="white" stroke="black" stroke-width="12"/>
<rect x="40" y="41" width="1119" height="1592" fill="black"/>
<path d="M80 77H1119V290H80V77Z" fill="white"/>
<path d="M80 331H1119V1370H80V331Z" fill="white"/>
<path d="M76.5 1588.54V1592.04H80H271.961H275.461V1588.54V1568.05V1564.55H271.961H154.074V1512.05H264.903H268.403V1508.55V1488.06V1484.56H264.903H154.074V1436.45H271.961H275.461V1432.95V1412.46V1408.96H271.961H80H76.5V1412.46V1588.54ZM312.491 1534.07H308.991V1537.57V1558.54C308.991 1565.4 312.534 1571.05 318.321 1575.49C324.028 1579.87 332.118 1583.27 341.937 1585.88C361.608 1591.12 389.314 1593.5 421.88 1593.5C463.974 1593.5 493.295 1589.54 512.207 1581.87C521.706 1578.02 528.79 1573.15 533.501 1567.17C538.255 1561.13 540.415 1554.19 540.415 1546.59C540.415 1540.93 539.567 1535.78 536.924 1530.93C534.293 1526.1 530.063 1521.88 523.862 1517.74C511.617 1509.56 490.714 1501.07 456.237 1488.67C423.723 1476.95 406.087 1469.38 396.58 1463.37C391.864 1460.39 389.448 1457.97 388.165 1455.87C386.94 1453.88 386.565 1451.89 386.565 1449.29C386.565 1446.47 387.244 1444.29 388.481 1442.52C389.736 1440.72 391.745 1439.1 394.812 1437.73C401.072 1434.94 411.032 1433.52 425.409 1433.52C439.027 1433.52 448.344 1434.98 454.132 1437.42C456.992 1438.63 458.802 1439.99 459.886 1441.36C460.929 1442.67 461.43 1444.13 461.43 1445.87V1459.77V1463.27H464.93H531.27H534.77V1459.77V1443.19C534.77 1436.06 532.296 1430.52 527.993 1426.28C523.812 1422.16 518.098 1419.45 511.886 1417.43L511.873 1417.42L511.86 1417.42C494.475 1411.91 466.569 1407.5 428.232 1407.5C389.686 1407.5 360.263 1410.6 340.367 1417.51C330.396 1420.97 322.561 1425.47 317.193 1431.25C311.748 1437.12 308.991 1444.14 308.991 1452.21C308.991 1466.24 319.986 1476.65 335.117 1485.2C350.441 1493.86 371.399 1501.39 393.919 1509.17L393.929 1509.18C430.75 1521.78 449.18 1529.15 458.454 1535.09C462.995 1538 464.953 1540.33 465.916 1542.44C466.911 1544.61 467.076 1547 467.076 1550.74C467.076 1553.13 466.602 1555.17 465.548 1556.95C464.497 1558.72 462.718 1560.48 459.697 1562.05C453.505 1565.27 442.569 1567.48 423.997 1567.48C410.084 1567.48 400.483 1565.66 394.488 1562.72C388.706 1559.88 386.565 1556.19 386.565 1551.96V1537.57V1534.07H383.065H312.491ZM595.603 1588.54V1592.04H599.103H669.677H673.177V1588.54V1515.46H693.672C705.28 1515.46 714.419 1515.74 721.605 1516.39C728.826 1517.05 733.859 1518.08 737.365 1519.48C740.783 1520.84 742.569 1522.49 743.608 1524.36C744.706 1526.34 745.219 1529.02 745.219 1532.93V1572.69C745.219 1576.4 745.578 1579.91 747.162 1583.15C748.773 1586.45 751.451 1589.09 755.34 1591.51L756.189 1592.04H757.188H823.528H829.597L826.557 1586.78C822.865 1580.41 822.793 1572.59 822.793 1566.1V1527.81C822.793 1523.06 821.617 1518.67 818.849 1514.82C816.108 1511.01 812.001 1508 806.587 1505.62C800.883 1503.11 793.498 1501.21 784.206 1499.85C796.876 1497.33 805.905 1494.17 812.221 1490.01C817.537 1486.51 820.977 1482.27 823.025 1477.18C825.034 1472.19 825.616 1466.6 825.616 1460.51C825.616 1450.82 824.971 1442.4 822.088 1435.41C819.113 1428.2 813.884 1422.78 805.415 1418.86C797.11 1415.01 785.657 1412.57 770.051 1411.07C754.398 1409.56 734.283 1408.96 708.492 1408.96H599.103H595.603V1412.46V1588.54ZM887.547 1588.54V1592.04H891.047H1001.85C1027.66 1592.04 1048 1591.27 1064 1589.52C1079.97 1587.76 1091.84 1584.99 1100.57 1580.85C1109.41 1576.64 1115.06 1570.99 1118.37 1563.64C1121.62 1556.45 1122.5 1547.95 1122.5 1538.3C1122.5 1530.64 1121.79 1524.09 1119.61 1518.58C1117.37 1512.94 1113.66 1508.6 1108.08 1505.29C1102.61 1502.05 1095.43 1499.86 1086.27 1498.23C1085.68 1498.12 1085.08 1498.02 1084.47 1497.92C1091.89 1496.52 1098.11 1494.53 1103.15 1491.52C1108.81 1488.15 1112.85 1483.55 1115.41 1477.42C1117.94 1471.39 1118.97 1464.03 1118.97 1455.14C1118.97 1446.89 1118.03 1439.56 1114.93 1433.33C1111.77 1426.98 1106.54 1422.14 1098.66 1418.55C1090.89 1415 1080.47 1412.63 1066.73 1411.13C1052.95 1409.62 1035.6 1408.96 1013.85 1408.96H891.047H887.547V1412.46V1588.54ZM688.026 1487.98H673.177V1436.45H703.552C714.498 1436.45 722.811 1436.6 729.172 1437.22C735.589 1437.84 739.588 1438.91 742.17 1440.44C744.531 1441.84 745.943 1443.77 746.824 1446.95C747.764 1450.34 748.042 1454.95 748.042 1461.48C748.042 1467.99 747.545 1472.6 746.203 1475.99C744.949 1479.17 742.894 1481.45 739.197 1483.19C735.314 1485.02 729.617 1486.26 721.164 1487.01C712.761 1487.75 701.954 1487.98 688.026 1487.98ZM1005.38 1566.01H965.121V1510.58H1007.49C1017.18 1510.58 1024.66 1510.83 1030.48 1511.58C1036.32 1512.33 1040.13 1513.56 1042.69 1515.27C1047.43 1518.43 1049.16 1524.15 1049.16 1537.57C1049.16 1551.55 1047.27 1557.66 1042.17 1561.05C1039.42 1562.87 1035.39 1564.17 1029.28 1564.96C1023.2 1565.75 1015.41 1566.01 1005.38 1566.01ZM1002.55 1484.56H965.121V1434.99H994.79C1006.04 1434.99 1014.94 1435.29 1021.96 1436.04C1029.02 1436.79 1033.96 1437.97 1037.41 1439.59C1040.76 1441.16 1042.67 1443.11 1043.84 1445.55C1045.07 1448.12 1045.63 1451.56 1045.63 1456.36C1045.63 1463.56 1045.36 1468.75 1044.41 1472.62C1043.5 1476.33 1042.04 1478.55 1039.75 1480.11C1037.29 1481.79 1033.48 1482.97 1027.3 1483.68C1021.17 1484.38 1013.14 1484.56 1002.55 1484.56Z" fill="white" stroke="white" stroke-width="7"/>
<path d="M379.814 1309.46L382.55 1316.98L390.068 1314.24L509.241 1270.87L516.758 1268.13L514.022 1260.62L305.643 688.099L654.229 1211.59L657.714 1216.83L663.624 1214.68L799.047 1165.39L805.083 1163.19L804.242 1156.82L723.037 541.723L929.634 1109.34L932.37 1116.86L939.888 1114.13L1067.19 1067.79L1074.7 1065.06L1071.97 1057.54L819.635 364.264L816.899 356.746L809.382 359.482L599.475 435.882L593.525 438.048L594.266 444.337L658.66 990.358L357.012 530.69L353.538 525.396L347.587 527.562L132.264 605.933L124.746 608.669L127.482 616.187L379.814 1309.46Z" fill="black" stroke="black" stroke-width="16"/>
<mask id="path-7-outside-1_5_87" maskUnits="userSpaceOnUse" x="114" y="92" width="972" height="171" fill="black">
<rect fill="white" x="114" y="92" width="972" height="171"/>
<path d="M116 259.624V94H156.008L179.157 220.168H179.66L202.809 94H241.811V259.624H218.158V110.516H217.655L191.99 259.624H166.827L138.646 110.516H138.143V259.624H116Z"/>
<path d="M253.943 259.624L293.951 94H323.139L360.127 259.624H334.965L326.662 217.415H287.409L279.105 259.624H253.943ZM307.035 118.316L291.183 198.146H323.139L307.539 118.316H307.035Z"/>
<path d="M344.34 113.269V94H429.891V113.269H399.697V259.624H374.535V113.269H344.34Z"/>
<path d="M525.146 94V222.232C525.146 241.501 516.842 261 482.622 261C448.15 261 439.846 241.501 439.846 222.232V94H465.008V226.132C465.008 237.372 469.537 243.107 482.622 243.107C495.454 243.107 499.984 237.372 499.984 226.132V94H525.146Z"/>
<path d="M543.068 259.624V94H582.069C618.806 94 622.58 102.946 622.58 139.191C622.58 161.442 619.309 171.077 598.676 176.812V177.271C615.786 178.876 621.574 186.905 621.574 202.504V238.519C621.574 244.484 621.574 252.742 623.083 259.624H599.431C596.915 255.495 596.411 251.365 596.411 244.713V207.321C596.411 191.723 593.392 187.593 576.785 187.593H568.23V259.624H543.068ZM568.23 113.269V168.324H574.772C594.65 168.324 597.418 164.883 597.418 140.109C597.418 115.563 595.908 113.269 580.308 113.269H568.23Z"/>
<path d="M640.866 259.624V94H709.307V113.269H666.028V165.113H706.791V184.382H666.028V240.354H709.307V259.624H640.866Z"/>
<path d="M797.871 259.624V125.198H797.368C792.084 131.621 787.303 135.75 777.742 142.402V120.839C783.529 116.94 797.117 101.341 800.388 94H821.524V259.624H797.871Z"/>
<path d="M872.872 259.624L912.628 114.187H857.775V94H936.281V115.104L899.041 259.624H872.872Z"/>
<path d="M1009.77 259.624V211.221H956.68V191.952H1009.77V143.549H1030.91V191.952H1084V211.221H1030.91V259.624H1009.77Z"/>
</mask>
<path d="M116 259.624V94H156.008L179.157 220.168H179.66L202.809 94H241.811V259.624H218.158V110.516H217.655L191.99 259.624H166.827L138.646 110.516H138.143V259.624H116Z" fill="black"/>
<path d="M253.943 259.624L293.951 94H323.139L360.127 259.624H334.965L326.662 217.415H287.409L279.105 259.624H253.943ZM307.035 118.316L291.183 198.146H323.139L307.539 118.316H307.035Z" fill="black"/>
<path d="M344.34 113.269V94H429.891V113.269H399.697V259.624H374.535V113.269H344.34Z" fill="black"/>
<path d="M525.146 94V222.232C525.146 241.501 516.842 261 482.622 261C448.15 261 439.846 241.501 439.846 222.232V94H465.008V226.132C465.008 237.372 469.537 243.107 482.622 243.107C495.454 243.107 499.984 237.372 499.984 226.132V94H525.146Z" fill="black"/>
<path d="M543.068 259.624V94H582.069C618.806 94 622.58 102.946 622.58 139.191C622.58 161.442 619.309 171.077 598.676 176.812V177.271C615.786 178.876 621.574 186.905 621.574 202.504V238.519C621.574 244.484 621.574 252.742 623.083 259.624H599.431C596.915 255.495 596.411 251.365 596.411 244.713V207.321C596.411 191.723 593.392 187.593 576.785 187.593H568.23V259.624H543.068ZM568.23 113.269V168.324H574.772C594.65 168.324 597.418 164.883 597.418 140.109C597.418 115.563 595.908 113.269 580.308 113.269H568.23Z" fill="black"/>
<path d="M640.866 259.624V94H709.307V113.269H666.028V165.113H706.791V184.382H666.028V240.354H709.307V259.624H640.866Z" fill="black"/>
<path d="M797.871 259.624V125.198H797.368C792.084 131.621 787.303 135.75 777.742 142.402V120.839C783.529 116.94 797.117 101.341 800.388 94H821.524V259.624H797.871Z" fill="black"/>
<path d="M872.872 259.624L912.628 114.187H857.775V94H936.281V115.104L899.041 259.624H872.872Z" fill="black"/>
<path d="M1009.77 259.624V211.221H956.68V191.952H1009.77V143.549H1030.91V191.952H1084V211.221H1030.91V259.624H1009.77Z" fill="black"/>
<path d="M116 259.624V94H156.008L179.157 220.168H179.66L202.809 94H241.811V259.624H218.158V110.516H217.655L191.99 259.624H166.827L138.646 110.516H138.143V259.624H116Z" stroke="black" stroke-width="4" mask="url(#path-7-outside-1_5_87)"/>
<path d="M253.943 259.624L293.951 94H323.139L360.127 259.624H334.965L326.662 217.415H287.409L279.105 259.624H253.943ZM307.035 118.316L291.183 198.146H323.139L307.539 118.316H307.035Z" stroke="black" stroke-width="4" mask="url(#path-7-outside-1_5_87)"/>
<path d="M344.34 113.269V94H429.891V113.269H399.697V259.624H374.535V113.269H344.34Z" stroke="black" stroke-width="4" mask="url(#path-7-outside-1_5_87)"/>
<path d="M525.146 94V222.232C525.146 241.501 516.842 261 482.622 261C448.15 261 439.846 241.501 439.846 222.232V94H465.008V226.132C465.008 237.372 469.537 243.107 482.622 243.107C495.454 243.107 499.984 237.372 499.984 226.132V94H525.146Z" stroke="black" stroke-width="4" mask="url(#path-7-outside-1_5_87)"/>
<path d="M543.068 259.624V94H582.069C618.806 94 622.58 102.946 622.58 139.191C622.58 161.442 619.309 171.077 598.676 176.812V177.271C615.786 178.876 621.574 186.905 621.574 202.504V238.519C621.574 244.484 621.574 252.742 623.083 259.624H599.431C596.915 255.495 596.411 251.365 596.411 244.713V207.321C596.411 191.723 593.392 187.593 576.785 187.593H568.23V259.624H543.068ZM568.23 113.269V168.324H574.772C594.65 168.324 597.418 164.883 597.418 140.109C597.418 115.563 595.908 113.269 580.308 113.269H568.23Z" stroke="black" stroke-width="4" mask="url(#path-7-outside-1_5_87)"/>
<path d="M640.866 259.624V94H709.307V113.269H666.028V165.113H706.791V184.382H666.028V240.354H709.307V259.624H640.866Z" stroke="black" stroke-width="4" mask="url(#path-7-outside-1_5_87)"/>
<path d="M797.871 259.624V125.198H797.368C792.084 131.621 787.303 135.75 777.742 142.402V120.839C783.529 116.94 797.117 101.341 800.388 94H821.524V259.624H797.871Z" stroke="black" stroke-width="4" mask="url(#path-7-outside-1_5_87)"/>
<path d="M872.872 259.624L912.628 114.187H857.775V94H936.281V115.104L899.041 259.624H872.872Z" stroke="black" stroke-width="4" mask="url(#path-7-outside-1_5_87)"/>
<path d="M1009.77 259.624V211.221H956.68V191.952H1009.77V143.549H1030.91V191.952H1084V211.221H1030.91V259.624H1009.77Z" stroke="black" stroke-width="4" mask="url(#path-7-outside-1_5_87)"/>
</svg>
