<svg width="1200" height="1674" viewBox="0 0 1200 1674" fill="none" xmlns="http://www.w3.org/2000/svg">
<rect x="6" y="6" width="1188" height="1662" fill="white" stroke="black" stroke-width="12"/>
<rect x="40" y="41" width="1119" height="1592" fill="black"/>
<path d="M80 77H1119V290H80V77Z" fill="white"/>
<path d="M80 331H1119V1370H80V331Z" fill="white"/>
<path d="M76.5 1588.54V1592.04H80H271.961H275.461V1588.54V1568.05V1564.55H271.961H154.074V1512.05H264.903H268.403V1508.55V1488.06V1484.56H264.903H154.074V1436.45H271.961H275.461V1432.95V1412.46V1408.96H271.961H80H76.5V1412.46V1588.54ZM312.491 1534.07H308.991V1537.57V1558.54C308.991 1565.4 312.534 1571.05 318.321 1575.49C324.028 1579.87 332.118 1583.27 341.937 1585.88C361.608 1591.12 389.314 1593.5 421.88 1593.5C463.974 1593.5 493.295 1589.54 512.207 1581.87C521.706 1578.02 528.79 1573.15 533.501 1567.17C538.255 1561.13 540.415 1554.19 540.415 1546.59C540.415 1540.93 539.567 1535.78 536.924 1530.93C534.293 1526.1 530.063 1521.88 523.862 1517.74C511.617 1509.56 490.714 1501.07 456.237 1488.67C423.723 1476.95 406.087 1469.38 396.58 1463.37C391.864 1460.39 389.448 1457.97 388.165 1455.87C386.94 1453.88 386.565 1451.89 386.565 1449.29C386.565 1446.47 387.244 1444.29 388.481 1442.52C389.736 1440.72 391.745 1439.1 394.812 1437.73C401.072 1434.94 411.032 1433.52 425.409 1433.52C439.027 1433.52 448.344 1434.98 454.132 1437.42C456.992 1438.63 458.802 1439.99 459.886 1441.36C460.929 1442.67 461.43 1444.13 461.43 1445.87V1459.77V1463.27H464.93H531.27H534.77V1459.77V1443.19C534.77 1436.06 532.296 1430.52 527.993 1426.28C523.812 1422.16 518.098 1419.45 511.886 1417.43L511.873 1417.42L511.86 1417.42C494.475 1411.91 466.569 1407.5 428.232 1407.5C389.686 1407.5 360.263 1410.6 340.367 1417.51C330.396 1420.97 322.561 1425.47 317.193 1431.25C311.748 1437.12 308.991 1444.14 308.991 1452.21C308.991 1466.24 319.986 1476.65 335.117 1485.2C350.441 1493.86 371.399 1501.39 393.919 1509.17L393.929 1509.18C430.75 1521.78 449.18 1529.15 458.454 1535.09C462.995 1538 464.953 1540.33 465.916 1542.44C466.911 1544.61 467.076 1547 467.076 1550.74C467.076 1553.13 466.602 1555.17 465.548 1556.95C464.497 1558.72 462.718 1560.48 459.697 1562.05C453.505 1565.27 442.569 1567.48 423.997 1567.48C410.084 1567.48 400.483 1565.66 394.488 1562.72C388.706 1559.88 386.565 1556.19 386.565 1551.96V1537.57V1534.07H383.065H312.491ZM595.603 1588.54V1592.04H599.103H669.677H673.177V1588.54V1515.46H693.672C705.28 1515.46 714.419 1515.74 721.605 1516.39C728.826 1517.05 733.859 1518.08 737.365 1519.48C740.783 1520.84 742.569 1522.49 743.608 1524.36C744.706 1526.34 745.219 1529.02 745.219 1532.93V1572.69C745.219 1576.4 745.578 1579.91 747.162 1583.15C748.773 1586.45 751.451 1589.09 755.34 1591.51L756.189 1592.04H757.188H823.528H829.597L826.557 1586.78C822.865 1580.41 822.793 1572.59 822.793 1566.1V1527.81C822.793 1523.06 821.617 1518.67 818.849 1514.82C816.108 1511.01 812.001 1508 806.587 1505.62C800.883 1503.11 793.498 1501.21 784.206 1499.85C796.876 1497.33 805.905 1494.17 812.221 1490.01C817.537 1486.51 820.977 1482.27 823.025 1477.18C825.034 1472.19 825.616 1466.6 825.616 1460.51C825.616 1450.82 824.971 1442.4 822.088 1435.41C819.113 1428.2 813.884 1422.78 805.415 1418.86C797.11 1415.01 785.657 1412.57 770.051 1411.07C754.398 1409.56 734.283 1408.96 708.492 1408.96H599.103H595.603V1412.46V1588.54ZM887.547 1588.54V1592.04H891.047H1001.85C1027.66 1592.04 1048 1591.27 1064 1589.52C1079.97 1587.76 1091.84 1584.99 1100.57 1580.85C1109.41 1576.64 1115.06 1570.99 1118.37 1563.64C1121.62 1556.45 1122.5 1547.95 1122.5 1538.3C1122.5 1530.64 1121.79 1524.09 1119.61 1518.58C1117.37 1512.94 1113.66 1508.6 1108.08 1505.29C1102.61 1502.05 1095.43 1499.86 1086.27 1498.23C1085.68 1498.12 1085.08 1498.02 1084.47 1497.92C1091.89 1496.52 1098.11 1494.53 1103.15 1491.52C1108.81 1488.15 1112.85 1483.55 1115.41 1477.42C1117.94 1471.39 1118.97 1464.03 1118.97 1455.14C1118.97 1446.89 1118.03 1439.56 1114.93 1433.33C1111.77 1426.98 1106.54 1422.14 1098.66 1418.55C1090.89 1415 1080.47 1412.63 1066.73 1411.13C1052.95 1409.62 1035.6 1408.96 1013.85 1408.96H891.047H887.547V1412.46V1588.54ZM688.026 1487.98H673.177V1436.45H703.552C714.498 1436.45 722.811 1436.6 729.172 1437.22C735.589 1437.84 739.588 1438.91 742.17 1440.44C744.531 1441.84 745.943 1443.77 746.824 1446.95C747.764 1450.34 748.042 1454.95 748.042 1461.48C748.042 1467.99 747.545 1472.6 746.203 1475.99C744.949 1479.17 742.894 1481.45 739.197 1483.19C735.314 1485.02 729.617 1486.26 721.164 1487.01C712.761 1487.75 701.954 1487.98 688.026 1487.98ZM1005.38 1566.01H965.121V1510.58H1007.49C1017.18 1510.58 1024.66 1510.83 1030.48 1511.58C1036.32 1512.33 1040.13 1513.56 1042.69 1515.27C1047.43 1518.43 1049.16 1524.15 1049.16 1537.57C1049.16 1551.55 1047.27 1557.66 1042.17 1561.05C1039.42 1562.87 1035.39 1564.17 1029.28 1564.96C1023.2 1565.75 1015.41 1566.01 1005.38 1566.01ZM1002.55 1484.56H965.121V1434.99H994.79C1006.04 1434.99 1014.94 1435.29 1021.96 1436.04C1029.02 1436.79 1033.96 1437.97 1037.41 1439.59C1040.76 1441.16 1042.67 1443.11 1043.84 1445.55C1045.07 1448.12 1045.63 1451.56 1045.63 1456.36C1045.63 1463.56 1045.36 1468.75 1044.41 1472.62C1043.5 1476.33 1042.04 1478.55 1039.75 1480.11C1037.29 1481.79 1033.48 1482.97 1027.3 1483.68C1021.17 1484.38 1013.14 1484.56 1002.55 1484.56Z" fill="white" stroke="white" stroke-width="7"/>
<path d="M194.794 1267.62L193.595 1283.12L208.608 1279.1L378.904 1233.47L386.908 1231.32L387.055 1223.04L390.667 1020.56L640.322 953.669L744.687 1127.21L748.958 1134.31L756.961 1132.17L927.257 1086.54L941.896 1082.61L933.629 1069.91L477.533 369.077L473.179 362.386L465.467 364.452L267.924 417.383L260.404 419.398L259.803 427.16L194.794 1267.62ZM580.771 851.094L392.718 901.483L399.883 549.108L580.771 851.094Z" fill="black" stroke="black" stroke-width="22"/>
<rect x="376.773" y="505.673" width="170.155" height="544" transform="rotate(-33 376.773 505.673)" fill="white"/>
<path fill-rule="evenodd" clip-rule="evenodd" d="M519.477 413L376.773 505.673L673.057 961.91L815.761 869.237L759.188 782.123C768.316 776.046 776.784 768.78 784.593 760.327C802.749 740.474 814.176 715.425 818.876 685.179C823.576 654.933 821.335 622.676 812.153 588.409C803.095 554.602 789.296 525.937 770.757 502.411C752.31 478.697 730.271 462.286 704.641 453.178C679.01 444.07 652.722 443.126 625.775 450.346C601.656 456.809 581.601 468.039 565.608 484.036L519.477 413ZM588.39 519.116L565.608 484.036C554.316 495.332 545.05 509.005 537.81 525.055C520.275 563.681 519.022 611.038 534.051 667.126C541.997 696.783 555.107 723.41 573.381 747.007C591.654 770.603 613.667 787.186 639.422 796.755C665.176 806.324 691.792 807.427 719.269 800.065C733.741 796.187 747.048 790.206 759.188 782.123L737.635 748.934C752.068 739.156 763.186 725.229 770.986 707.152C783.494 678.437 783.922 642.336 772.27 598.849C764.899 571.343 754.427 548.456 740.854 530.188C727.372 511.731 711.363 498.974 692.827 491.918C674.382 484.673 655.536 483.628 636.289 488.786C616.978 493.96 601.011 504.07 588.39 519.116ZM588.39 519.116L737.635 748.934C729.17 754.669 719.564 758.976 708.817 761.855C680.278 769.502 653.388 764.19 628.148 745.919C602.999 727.459 584.969 697.868 574.058 657.147C560.429 606.284 560.535 567.387 574.375 540.456C578.467 532.489 583.139 525.375 588.39 519.116Z" fill="black"/>
<mask id="path-9-outside-1_5_101" maskUnits="userSpaceOnUse" x="107" y="98" width="984" height="170" fill="black">
<rect fill="white" x="107" y="98" width="984" height="170"/>
<path d="M109 265.627L138.442 100.373H159.922L187.141 265.627H168.624L162.514 223.512H133.627L127.517 265.627H109ZM148.071 124.635L136.405 204.286H159.922L148.441 124.635H148.071Z"/>
<path d="M214.609 119.599V246.401H223.497C237.199 246.401 239.792 237.474 239.792 209.093V152.33C239.792 127.839 237.755 119.599 222.015 119.599H214.609ZM196.092 265.627V100.373H225.904C255.901 100.373 258.309 112.733 258.309 160.798V210.008C258.309 252.352 252.198 265.627 222.941 265.627H196.092Z"/>
<path d="M333.714 100.373V228.319C333.714 247.545 327.604 267 302.421 267C277.053 267 270.942 247.545 270.942 228.319V100.373H289.459V232.21C289.459 243.425 292.792 249.147 302.421 249.147C311.864 249.147 315.197 243.425 315.197 232.21V100.373H333.714Z"/>
<path d="M346.903 265.627V100.373H365.42V246.401H396.529V265.627H346.903Z"/>
<path d="M381.126 119.599V100.373H444.084V119.599H421.863V265.627H403.347V119.599H381.126Z"/>
<path d="M449.928 237.474V217.79H468.445V231.294C468.445 242.281 471.778 249.147 479.185 249.147C488.999 249.147 491.406 240.907 491.406 230.15C491.406 216.188 490.851 211.61 471.593 188.035C459.742 173.387 449.928 160.112 449.928 137.681C449.928 110.673 460.112 99 480.296 99C490.295 99 497.517 103.12 501.961 108.155C505.109 111.817 507.331 117.54 507.331 129.213V144.777H489.925V131.73C489.925 122.346 486.777 116.853 479.555 116.853C471.963 116.853 468.445 122.117 468.445 134.935C468.445 146.15 470.297 153.016 487.332 174.989C505.479 198.335 508.812 206.346 508.812 226.259C508.812 252.123 500.665 267 478.629 267C461.594 267 449.928 258.074 449.928 237.474Z"/>
<path d="M572.818 140.657V227.403C572.818 241.594 578.003 249.147 585.595 249.147C593.372 249.147 598.557 241.594 598.557 227.403V140.657C598.557 124.406 594.113 116.853 585.595 116.853C577.262 116.853 572.818 124.406 572.818 140.657ZM554.301 226.03V142.488C554.301 119.371 560.412 99 585.595 99C609.482 99 617.074 114.335 617.074 139.97V223.512C617.074 246.629 610.963 267 585.595 267C561.893 267 554.301 251.665 554.301 226.03Z"/>
<path d="M630.263 265.627V100.373H655.816L677.666 237.703H678.036V100.373H695.442V265.627H668.778L646.928 124.635H646.557V265.627H630.263Z"/>
<path d="M709.104 265.627V100.373H727.621V246.401H758.73V265.627H709.104Z"/>
<path d="M768.377 197.877L742.824 100.373H761.341L777.45 169.954H777.821L796.338 100.373H812.633L786.894 197.877V265.627H768.377V197.877Z"/>
<path d="M879.437 265.627V131.501H879.066C875.178 137.91 871.66 142.03 864.623 148.668V127.153C868.882 123.262 878.881 107.698 881.288 100.373H896.843V265.627H879.437Z"/>
<path d="M963.331 229.921V209.779C963.331 199.48 963.331 189.18 953.147 189.18C942.963 189.18 942.963 199.48 942.963 209.779V229.921C942.963 240.221 942.963 250.52 953.147 250.52C963.331 250.52 963.331 240.221 963.331 229.921ZM962.22 155.992V135.392C962.22 126.008 962.22 116.853 953.147 116.853C944.074 116.853 944.074 126.008 944.074 135.392V148.896C944.074 163.316 944.074 171.327 953.147 171.327C962.22 171.327 962.22 163.316 962.22 155.992ZM925.557 226.259V212.526C925.557 188.951 929.63 184.373 940.37 180.711V180.253C929.63 177.049 926.668 169.267 926.668 149.583V134.248C926.668 110.902 932.778 99 953.147 99C973.516 99 979.626 110.902 979.626 134.248V149.583C979.626 169.267 976.663 177.049 965.924 180.253V180.711C976.663 184.373 980.737 188.951 980.737 212.526V226.259C980.737 256.014 975.182 267 953.147 267C931.112 267 925.557 256.014 925.557 226.259Z"/>
<path d="M1035.38 265.627V217.332H996.304V198.106H1035.38V149.812H1050.93V198.106H1090V217.332H1050.93V265.627H1035.38Z"/>
</mask>
<path d="M109 265.627L138.442 100.373H159.922L187.141 265.627H168.624L162.514 223.512H133.627L127.517 265.627H109ZM148.071 124.635L136.405 204.286H159.922L148.441 124.635H148.071Z" fill="black"/>
<path d="M214.609 119.599V246.401H223.497C237.199 246.401 239.792 237.474 239.792 209.093V152.33C239.792 127.839 237.755 119.599 222.015 119.599H214.609ZM196.092 265.627V100.373H225.904C255.901 100.373 258.309 112.733 258.309 160.798V210.008C258.309 252.352 252.198 265.627 222.941 265.627H196.092Z" fill="black"/>
<path d="M333.714 100.373V228.319C333.714 247.545 327.604 267 302.421 267C277.053 267 270.942 247.545 270.942 228.319V100.373H289.459V232.21C289.459 243.425 292.792 249.147 302.421 249.147C311.864 249.147 315.197 243.425 315.197 232.21V100.373H333.714Z" fill="black"/>
<path d="M346.903 265.627V100.373H365.42V246.401H396.529V265.627H346.903Z" fill="black"/>
<path d="M381.126 119.599V100.373H444.084V119.599H421.863V265.627H403.347V119.599H381.126Z" fill="black"/>
<path d="M449.928 237.474V217.79H468.445V231.294C468.445 242.281 471.778 249.147 479.185 249.147C488.999 249.147 491.406 240.907 491.406 230.15C491.406 216.188 490.851 211.61 471.593 188.035C459.742 173.387 449.928 160.112 449.928 137.681C449.928 110.673 460.112 99 480.296 99C490.295 99 497.517 103.12 501.961 108.155C505.109 111.817 507.331 117.54 507.331 129.213V144.777H489.925V131.73C489.925 122.346 486.777 116.853 479.555 116.853C471.963 116.853 468.445 122.117 468.445 134.935C468.445 146.15 470.297 153.016 487.332 174.989C505.479 198.335 508.812 206.346 508.812 226.259C508.812 252.123 500.665 267 478.629 267C461.594 267 449.928 258.074 449.928 237.474Z" fill="black"/>
<path d="M572.818 140.657V227.403C572.818 241.594 578.003 249.147 585.595 249.147C593.372 249.147 598.557 241.594 598.557 227.403V140.657C598.557 124.406 594.113 116.853 585.595 116.853C577.262 116.853 572.818 124.406 572.818 140.657ZM554.301 226.03V142.488C554.301 119.371 560.412 99 585.595 99C609.482 99 617.074 114.335 617.074 139.97V223.512C617.074 246.629 610.963 267 585.595 267C561.893 267 554.301 251.665 554.301 226.03Z" fill="black"/>
<path d="M630.263 265.627V100.373H655.816L677.666 237.703H678.036V100.373H695.442V265.627H668.778L646.928 124.635H646.557V265.627H630.263Z" fill="black"/>
<path d="M709.104 265.627V100.373H727.621V246.401H758.73V265.627H709.104Z" fill="black"/>
<path d="M768.377 197.877L742.824 100.373H761.341L777.45 169.954H777.821L796.338 100.373H812.633L786.894 197.877V265.627H768.377V197.877Z" fill="black"/>
<path d="M879.437 265.627V131.501H879.066C875.178 137.91 871.66 142.03 864.623 148.668V127.153C868.882 123.262 878.881 107.698 881.288 100.373H896.843V265.627H879.437Z" fill="black"/>
<path d="M963.331 229.921V209.779C963.331 199.48 963.331 189.18 953.147 189.18C942.963 189.18 942.963 199.48 942.963 209.779V229.921C942.963 240.221 942.963 250.52 953.147 250.52C963.331 250.52 963.331 240.221 963.331 229.921ZM962.22 155.992V135.392C962.22 126.008 962.22 116.853 953.147 116.853C944.074 116.853 944.074 126.008 944.074 135.392V148.896C944.074 163.316 944.074 171.327 953.147 171.327C962.22 171.327 962.22 163.316 962.22 155.992ZM925.557 226.259V212.526C925.557 188.951 929.63 184.373 940.37 180.711V180.253C929.63 177.049 926.668 169.267 926.668 149.583V134.248C926.668 110.902 932.778 99 953.147 99C973.516 99 979.626 110.902 979.626 134.248V149.583C979.626 169.267 976.663 177.049 965.924 180.253V180.711C976.663 184.373 980.737 188.951 980.737 212.526V226.259C980.737 256.014 975.182 267 953.147 267C931.112 267 925.557 256.014 925.557 226.259Z" fill="black"/>
<path d="M1035.38 265.627V217.332H996.304V198.106H1035.38V149.812H1050.93V198.106H1090V217.332H1050.93V265.627H1035.38Z" fill="black"/>
<path d="M109 265.627L138.442 100.373H159.922L187.141 265.627H168.624L162.514 223.512H133.627L127.517 265.627H109ZM148.071 124.635L136.405 204.286H159.922L148.441 124.635H148.071Z" stroke="black" stroke-width="2" mask="url(#path-9-outside-1_5_101)"/>
<path d="M214.609 119.599V246.401H223.497C237.199 246.401 239.792 237.474 239.792 209.093V152.33C239.792 127.839 237.755 119.599 222.015 119.599H214.609ZM196.092 265.627V100.373H225.904C255.901 100.373 258.309 112.733 258.309 160.798V210.008C258.309 252.352 252.198 265.627 222.941 265.627H196.092Z" stroke="black" stroke-width="2" mask="url(#path-9-outside-1_5_101)"/>
<path d="M333.714 100.373V228.319C333.714 247.545 327.604 267 302.421 267C277.053 267 270.942 247.545 270.942 228.319V100.373H289.459V232.21C289.459 243.425 292.792 249.147 302.421 249.147C311.864 249.147 315.197 243.425 315.197 232.21V100.373H333.714Z" stroke="black" stroke-width="2" mask="url(#path-9-outside-1_5_101)"/>
<path d="M346.903 265.627V100.373H365.42V246.401H396.529V265.627H346.903Z" stroke="black" stroke-width="2" mask="url(#path-9-outside-1_5_101)"/>
<path d="M381.126 119.599V100.373H444.084V119.599H421.863V265.627H403.347V119.599H381.126Z" stroke="black" stroke-width="2" mask="url(#path-9-outside-1_5_101)"/>
<path d="M449.928 237.474V217.79H468.445V231.294C468.445 242.281 471.778 249.147 479.185 249.147C488.999 249.147 491.406 240.907 491.406 230.15C491.406 216.188 490.851 211.61 471.593 188.035C459.742 173.387 449.928 160.112 449.928 137.681C449.928 110.673 460.112 99 480.296 99C490.295 99 497.517 103.12 501.961 108.155C505.109 111.817 507.331 117.54 507.331 129.213V144.777H489.925V131.73C489.925 122.346 486.777 116.853 479.555 116.853C471.963 116.853 468.445 122.117 468.445 134.935C468.445 146.15 470.297 153.016 487.332 174.989C505.479 198.335 508.812 206.346 508.812 226.259C508.812 252.123 500.665 267 478.629 267C461.594 267 449.928 258.074 449.928 237.474Z" stroke="black" stroke-width="2" mask="url(#path-9-outside-1_5_101)"/>
<path d="M572.818 140.657V227.403C572.818 241.594 578.003 249.147 585.595 249.147C593.372 249.147 598.557 241.594 598.557 227.403V140.657C598.557 124.406 594.113 116.853 585.595 116.853C577.262 116.853 572.818 124.406 572.818 140.657ZM554.301 226.03V142.488C554.301 119.371 560.412 99 585.595 99C609.482 99 617.074 114.335 617.074 139.97V223.512C617.074 246.629 610.963 267 585.595 267C561.893 267 554.301 251.665 554.301 226.03Z" stroke="black" stroke-width="2" mask="url(#path-9-outside-1_5_101)"/>
<path d="M630.263 265.627V100.373H655.816L677.666 237.703H678.036V100.373H695.442V265.627H668.778L646.928 124.635H646.557V265.627H630.263Z" stroke="black" stroke-width="2" mask="url(#path-9-outside-1_5_101)"/>
<path d="M709.104 265.627V100.373H727.621V246.401H758.73V265.627H709.104Z" stroke="black" stroke-width="2" mask="url(#path-9-outside-1_5_101)"/>
<path d="M768.377 197.877L742.824 100.373H761.341L777.45 169.954H777.821L796.338 100.373H812.633L786.894 197.877V265.627H768.377V197.877Z" stroke="black" stroke-width="2" mask="url(#path-9-outside-1_5_101)"/>
<path d="M879.437 265.627V131.501H879.066C875.178 137.91 871.66 142.03 864.623 148.668V127.153C868.882 123.262 878.881 107.698 881.288 100.373H896.843V265.627H879.437Z" stroke="black" stroke-width="2" mask="url(#path-9-outside-1_5_101)"/>
<path d="M963.331 229.921V209.779C963.331 199.48 963.331 189.18 953.147 189.18C942.963 189.18 942.963 199.48 942.963 209.779V229.921C942.963 240.221 942.963 250.52 953.147 250.52C963.331 250.52 963.331 240.221 963.331 229.921ZM962.22 155.992V135.392C962.22 126.008 962.22 116.853 953.147 116.853C944.074 116.853 944.074 126.008 944.074 135.392V148.896C944.074 163.316 944.074 171.327 953.147 171.327C962.22 171.327 962.22 163.316 962.22 155.992ZM925.557 226.259V212.526C925.557 188.951 929.63 184.373 940.37 180.711V180.253C929.63 177.049 926.668 169.267 926.668 149.583V134.248C926.668 110.902 932.778 99 953.147 99C973.516 99 979.626 110.902 979.626 134.248V149.583C979.626 169.267 976.663 177.049 965.924 180.253V180.711C976.663 184.373 980.737 188.951 980.737 212.526V226.259C980.737 256.014 975.182 267 953.147 267C931.112 267 925.557 256.014 925.557 226.259Z" stroke="black" stroke-width="2" mask="url(#path-9-outside-1_5_101)"/>
<path d="M1035.38 265.627V217.332H996.304V198.106H1035.38V149.812H1050.93V198.106H1090V217.332H1050.93V265.627H1035.38Z" stroke="black" stroke-width="2" mask="url(#path-9-outside-1_5_101)"/>
</svg>
