<svg width="1200" height="1674" viewBox="0 0 1200 1674" fill="none" xmlns="http://www.w3.org/2000/svg">
<rect x="6" y="6" width="1188" height="1662" fill="white" stroke="black" stroke-width="12"/>
<rect x="40" y="41" width="1119" height="1592" fill="black"/>
<path d="M80 77H1119V290H80V77Z" fill="white"/>
<path d="M80 331H1119V1370H80V331Z" fill="white"/>
<path d="M76.5 1588.54V1592.04H80H271.961H275.461V1588.54V1568.05V1564.55H271.961H154.074V1512.05H264.903H268.403V1508.55V1488.06V1484.56H264.903H154.074V1436.45H271.961H275.461V1432.95V1412.46V1408.96H271.961H80H76.5V1412.46V1588.54ZM312.491 1534.07H308.991V1537.57V1558.54C308.991 1565.4 312.534 1571.05 318.321 1575.49C324.028 1579.87 332.118 1583.27 341.937 1585.88C361.608 1591.12 389.314 1593.5 421.88 1593.5C463.974 1593.5 493.295 1589.54 512.207 1581.87C521.706 1578.02 528.79 1573.15 533.501 1567.17C538.255 1561.13 540.415 1554.19 540.415 1546.59C540.415 1540.93 539.567 1535.78 536.924 1530.93C534.293 1526.1 530.063 1521.88 523.862 1517.74C511.617 1509.56 490.714 1501.07 456.237 1488.67C423.723 1476.95 406.087 1469.38 396.58 1463.37C391.864 1460.39 389.448 1457.97 388.165 1455.87C386.94 1453.88 386.565 1451.89 386.565 1449.29C386.565 1446.47 387.244 1444.29 388.481 1442.52C389.736 1440.72 391.745 1439.1 394.812 1437.73C401.072 1434.94 411.032 1433.52 425.409 1433.52C439.027 1433.52 448.344 1434.98 454.132 1437.42C456.992 1438.63 458.802 1439.99 459.886 1441.36C460.929 1442.67 461.43 1444.13 461.43 1445.87V1459.77V1463.27H464.93H531.27H534.77V1459.77V1443.19C534.77 1436.06 532.296 1430.52 527.993 1426.28C523.812 1422.16 518.098 1419.45 511.886 1417.43L511.873 1417.42L511.86 1417.42C494.475 1411.91 466.569 1407.5 428.232 1407.5C389.686 1407.5 360.263 1410.6 340.367 1417.51C330.396 1420.97 322.561 1425.47 317.193 1431.25C311.748 1437.12 308.991 1444.14 308.991 1452.21C308.991 1466.24 319.986 1476.65 335.117 1485.2C350.441 1493.86 371.399 1501.39 393.919 1509.17L393.929 1509.18C430.75 1521.78 449.18 1529.15 458.454 1535.09C462.995 1538 464.953 1540.33 465.916 1542.44C466.911 1544.61 467.076 1547 467.076 1550.74C467.076 1553.13 466.602 1555.17 465.548 1556.95C464.497 1558.72 462.718 1560.48 459.697 1562.05C453.505 1565.27 442.569 1567.48 423.997 1567.48C410.084 1567.48 400.483 1565.66 394.488 1562.72C388.706 1559.88 386.565 1556.19 386.565 1551.96V1537.57V1534.07H383.065H312.491ZM595.603 1588.54V1592.04H599.103H669.677H673.177V1588.54V1515.46H693.672C705.28 1515.46 714.419 1515.74 721.605 1516.39C728.826 1517.05 733.859 1518.08 737.365 1519.48C740.783 1520.84 742.569 1522.49 743.608 1524.36C744.706 1526.34 745.219 1529.02 745.219 1532.93V1572.69C745.219 1576.4 745.578 1579.91 747.162 1583.15C748.773 1586.45 751.451 1589.09 755.34 1591.51L756.189 1592.04H757.188H823.528H829.597L826.557 1586.78C822.865 1580.41 822.793 1572.59 822.793 1566.1V1527.81C822.793 1523.06 821.617 1518.67 818.849 1514.82C816.108 1511.01 812.001 1508 806.587 1505.62C800.883 1503.11 793.498 1501.21 784.206 1499.85C796.876 1497.33 805.905 1494.17 812.221 1490.01C817.537 1486.51 820.977 1482.27 823.025 1477.18C825.034 1472.19 825.616 1466.6 825.616 1460.51C825.616 1450.82 824.971 1442.4 822.088 1435.41C819.113 1428.2 813.884 1422.78 805.415 1418.86C797.11 1415.01 785.657 1412.57 770.051 1411.07C754.398 1409.56 734.283 1408.96 708.492 1408.96H599.103H595.603V1412.46V1588.54ZM887.547 1588.54V1592.04H891.047H1001.85C1027.66 1592.04 1048 1591.27 1064 1589.52C1079.97 1587.76 1091.84 1584.99 1100.57 1580.85C1109.41 1576.64 1115.06 1570.99 1118.37 1563.64C1121.62 1556.45 1122.5 1547.95 1122.5 1538.3C1122.5 1530.64 1121.79 1524.09 1119.61 1518.58C1117.37 1512.94 1113.66 1508.6 1108.08 1505.29C1102.61 1502.05 1095.43 1499.86 1086.27 1498.23C1085.68 1498.12 1085.08 1498.02 1084.47 1497.92C1091.89 1496.52 1098.11 1494.53 1103.15 1491.52C1108.81 1488.15 1112.85 1483.55 1115.41 1477.42C1117.94 1471.39 1118.97 1464.03 1118.97 1455.14C1118.97 1446.89 1118.03 1439.56 1114.93 1433.33C1111.77 1426.98 1106.54 1422.14 1098.66 1418.55C1090.89 1415 1080.47 1412.63 1066.73 1411.13C1052.95 1409.62 1035.6 1408.96 1013.85 1408.96H891.047H887.547V1412.46V1588.54ZM688.026 1487.98H673.177V1436.45H703.552C714.498 1436.45 722.811 1436.6 729.172 1437.22C735.589 1437.84 739.588 1438.91 742.17 1440.44C744.531 1441.84 745.943 1443.77 746.824 1446.95C747.764 1450.34 748.042 1454.95 748.042 1461.48C748.042 1467.99 747.545 1472.6 746.203 1475.99C744.949 1479.17 742.894 1481.45 739.197 1483.19C735.314 1485.02 729.617 1486.26 721.164 1487.01C712.761 1487.75 701.954 1487.98 688.026 1487.98ZM1005.38 1566.01H965.121V1510.58H1007.49C1017.18 1510.58 1024.66 1510.83 1030.48 1511.58C1036.32 1512.33 1040.13 1513.56 1042.69 1515.27C1047.43 1518.43 1049.16 1524.15 1049.16 1537.57C1049.16 1551.55 1047.27 1557.66 1042.17 1561.05C1039.42 1562.87 1035.39 1564.17 1029.28 1564.96C1023.2 1565.75 1015.41 1566.01 1005.38 1566.01ZM1002.55 1484.56H965.121V1434.99H994.79C1006.04 1434.99 1014.94 1435.29 1021.96 1436.04C1029.02 1436.79 1033.96 1437.97 1037.41 1439.59C1040.76 1441.16 1042.67 1443.11 1043.84 1445.55C1045.07 1448.12 1045.63 1451.56 1045.63 1456.36C1045.63 1463.56 1045.36 1468.75 1044.41 1472.62C1043.5 1476.33 1042.04 1478.55 1039.75 1480.11C1037.29 1481.79 1033.48 1482.97 1027.3 1483.68C1021.17 1484.38 1013.14 1484.56 1002.55 1484.56Z" fill="white" stroke="white" stroke-width="7"/>
<path d="M270.91 1289.06L272.56 1298.41L281.915 1296.76L401.806 1275.62L411.161 1273.97L409.512 1264.62L353.639 947.747L385.045 942.209C424.841 935.192 445.268 936.705 457.577 945.336C469.848 953.941 477.016 971.675 483.309 1007.36L513.17 1176.71C518.552 1207.23 524.618 1227.81 541.834 1246.49L545.354 1250.31L550.469 1249.41L663.166 1229.54L674.927 1227.47L670.262 1216.47C658.072 1187.75 651.629 1151.46 646.825 1124.22L618.064 961.106C611.659 924.786 599.399 896.487 576.284 878.568C560.209 866.106 539.817 859.385 514.596 857.673C543.642 840.004 562.032 820.305 571.687 795.379C584.208 763.054 581.174 723.855 572.298 673.512C565.056 632.444 557.951 598.66 548.511 571.762C539.053 544.812 526.96 523.899 509.187 509.359C491.304 494.73 468.729 487.409 440 485.601C411.436 483.803 376.16 487.415 332.18 495.17L146.35 527.936L136.995 529.586L138.644 538.942L270.91 1289.06ZM736.889 1206.89L738.539 1216.25L747.895 1214.6L867.785 1193.46L877.141 1191.81L875.491 1182.45L819.618 865.582L888.191 853.491C969.44 839.164 1020.51 820.58 1045.64 780.356C1058.2 760.252 1063.67 735.704 1064.22 705.74C1064.77 675.837 1060.42 639.834 1052.75 596.295C1045.07 552.755 1036.84 517.438 1026.09 489.527C1015.33 461.558 1001.79 440.36 983.116 425.765C945.746 396.561 891.398 396.564 810.148 410.891L612.33 445.772L602.974 447.421L604.624 456.777L736.889 1206.89ZM356.767 837.918L334.951 841.764L294.284 611.129L342.475 602.632C361.089 599.35 374.566 597.674 384.904 598.341C394.786 598.979 401.028 601.705 405.986 606.854C411.364 612.44 416.126 621.789 420.763 637.636C425.363 653.358 429.526 674.298 434.429 702.107C439.366 730.106 442.304 751.638 442.613 768.559C442.922 785.487 440.563 796.757 435.825 804.904C431.21 812.839 423.627 819.013 410.866 824.287C397.901 829.645 380.366 833.756 356.767 837.918ZM853.917 750.257L800.93 759.6L760.263 528.965L813.25 519.622C833.642 516.026 848.613 514.149 860.164 514.766C871.343 515.362 878.472 518.249 884.017 523.633C889.927 529.372 895.066 538.926 899.968 555.048C904.841 571.072 909.152 592.414 914.146 620.734C919.14 649.054 922.387 670.584 923.289 687.307C924.197 704.133 922.635 714.869 919.044 722.283C915.676 729.239 909.963 734.39 899.663 738.774C889.019 743.304 874.309 746.661 853.917 750.257Z" fill="black" stroke="black" stroke-width="19"/>
<path d="M106 266.619V100.381H138.337C168.797 100.381 171.926 109.361 171.926 145.74C171.926 168.074 169.214 177.744 152.107 183.5V183.96C166.293 185.572 171.092 193.631 171.092 209.287V245.436C171.092 251.422 171.092 259.711 172.344 266.619H152.733C150.646 262.474 150.229 258.33 150.229 251.653V214.123C150.229 198.466 147.726 194.322 133.956 194.322H126.863V266.619H106ZM126.863 119.722V174.981H132.287C148.769 174.981 151.064 171.527 151.064 146.661C151.064 122.025 149.812 119.722 136.877 119.722H126.863Z" fill="black"/>
<path d="M181.663 266.619L214.835 100.381H239.036L269.705 266.619H248.842L241.957 224.253H209.411L202.526 266.619H181.663ZM225.684 124.787L212.54 204.913H239.036L226.101 124.787H225.684Z" fill="black"/>
<path d="M256.615 119.722V100.381H327.548V119.722H302.513V266.619H281.65V119.722H256.615Z" fill="black"/>
<path d="M335.802 266.619V100.381H356.665V266.619H335.802Z" fill="black"/>
<path d="M371.471 266.619V100.381H400.262L424.88 238.529H425.297V100.381H444.908V266.619H414.866L390.247 124.787H389.83V266.619H371.471Z" fill="black"/>
<path d="M529.774 144.358H508.911V135.839C508.911 124.097 503.695 116.959 495.559 116.959C485.962 116.959 481.164 126.629 481.164 144.358V228.168C481.164 241.522 487.005 250.041 495.559 250.041C501.401 250.041 506.199 249.12 508.911 248.429V199.617H495.142V180.277H529.774V263.856C521.637 265.928 507.242 268 495.35 268C468.855 268 460.301 252.574 460.301 226.786V142.747C460.301 111.663 468.855 99 495.768 99C518.091 99 529.774 107.98 529.774 129.162V144.358Z" fill="black"/>
<path d="M604.833 119.722V174.981H615.681C629.868 174.981 631.329 172.448 631.329 147.352C631.329 122.255 629.868 119.722 615.681 119.722H604.833ZM583.97 266.619V100.381H618.394C646.767 100.381 652.191 108.901 652.191 147.352C652.191 185.802 646.767 194.322 618.394 194.322H604.833V266.619H583.97Z" fill="black"/>
<path d="M665.058 266.619V100.381H721.805V119.722H685.921V171.757H719.718V191.098H685.921V247.278H721.805V266.619H665.058Z" fill="black"/>
<path d="M730.865 266.619V100.381H759.656L784.274 238.529H784.691V100.381H804.302V266.619H774.26L749.642 124.787H749.225V266.619H730.865Z" fill="black"/>
<path d="M840.558 119.722V247.278H850.572C866.011 247.278 868.931 238.298 868.931 209.748V152.647C868.931 128.011 866.636 119.722 848.903 119.722H840.558ZM819.695 266.619V100.381H853.284C887.082 100.381 889.794 112.815 889.794 161.166V210.669C889.794 253.264 882.909 266.619 849.946 266.619H819.695Z" fill="black"/>
<path d="M904.028 266.619V100.381H924.891V266.619H904.028Z" fill="black"/>
<path d="M939.697 266.619V100.381H968.488L993.106 238.529H993.523V100.381H1013.13V266.619H983.092L958.474 124.787H958.056V266.619H939.697Z" fill="black"/>
<path d="M1098 144.358H1077.14V135.839C1077.14 124.097 1071.92 116.959 1063.79 116.959C1054.19 116.959 1049.39 126.629 1049.39 144.358V228.168C1049.39 241.522 1055.23 250.041 1063.79 250.041C1069.63 250.041 1074.42 249.12 1077.14 248.429V199.617H1063.37V180.277H1098V263.856C1089.86 265.928 1075.47 268 1063.58 268C1037.08 268 1028.53 252.574 1028.53 226.786V142.747C1028.53 111.663 1037.08 99 1063.99 99C1086.32 99 1098 107.98 1098 129.162V144.358Z" fill="black"/>
</svg>
