<svg width="313" height="313" viewBox="0 0 313 313" fill="none" xmlns="http://www.w3.org/2000/svg">
<g clip-path="url(#clip0_1_21)">
<path d="M8.69177 200.811C27.7318 264.297 86.6191 310.592 156.303 310.592C241.405 310.592 310.395 241.602 310.395 156.5C310.395 71.3977 241.405 2.40771 156.303 2.40771C74.6433 2.40771 7.82019 65.9371 2.54253 146.263C12.5296 163.006 16.406 173.363 8.68214 200.811H8.69177Z" fill="url(#paint0_linear_1_21)"/>
<path d="M130.918 95.6168L130.597 96.5137L62.0243 143.827C54.9849 140.78 47.3217 139.309 39.4338 139.519C36.0057 139.596 32.5957 140.03 29.2593 140.815L-52.7199 63.9953C-52.7199 63.9953 -68.9739 100.033 -70.0439 131.08L-12.1012 185.421C-14.5482 202.082 -9.04509 219.595 4.09819 232C14.4424 241.749 28.2334 247.007 42.4423 246.62C56.6512 246.233 70.1163 240.232 79.88 229.935C85.0851 224.452 89.0677 217.93 91.5664 210.798L171.928 189.69L173.471 190.308C211.35 204.689 253.834 185.573 268.199 147.734C282.564 109.896 263.483 67.5363 225.577 53.0553C187.715 38.6812 145.226 57.757 130.861 95.5953L130.918 95.6168ZM70.9803 221.488C55.2776 238.095 29.0882 238.772 12.4973 223.105C5.14687 216.121 0.621253 206.687 -0.218137 196.599L18.6279 214.329C21.5368 217.074 24.9583 219.221 28.6966 220.647C32.435 222.073 36.417 222.75 40.4152 222.64C44.4134 222.529 48.3493 221.634 51.9982 220.004C55.647 218.374 58.9372 216.042 61.6808 213.141C67.2307 207.282 70.2201 199.46 69.9922 191.392C69.7644 183.325 66.338 175.673 60.4657 170.117L40.9296 151.771C51.1281 151.774 61.306 155.509 69.2945 163.036C77.3944 170.644 81.9059 180.894 82.2157 191.928C82.5254 202.962 78.5083 213.475 70.9351 221.471M182.23 167.422C170.105 162.782 160.308 153.536 154.987 141.71C149.665 129.885 149.253 116.444 153.839 104.331C158.449 92.2299 167.678 82.4525 179.505 77.1402C191.332 71.8279 204.794 71.4137 216.942 75.9882C229.069 80.6261 238.868 89.8694 244.192 101.693C249.516 113.518 249.932 126.959 245.349 139.072C240.741 151.179 231.51 160.961 219.679 166.275C207.848 171.589 194.381 172.001 182.23 167.422Z" fill="white"/>
<g clip-path="url(#clip1_1_21)">
<path d="M190.455 138.34C167.808 125.264 155.007 107.995 160.936 97.7261C166.865 87.4569 188.335 89.7095 210.983 102.785C233.631 115.861 246.317 133.329 240.388 143.598C234.459 153.867 213.103 151.416 190.455 138.34ZM207.621 108.609C188.296 97.4519 169.86 95.4575 166.574 101.148C163.289 106.839 174.378 121.558 193.703 132.715C213.028 143.872 231.464 145.866 234.75 140.176C238.035 134.485 226.945 119.766 207.621 108.609Z" fill="white"/>
<path d="M164.928 147.702C163.078 146.634 161.638 145.231 160.643 143.528C159.019 140.744 158.692 137.296 159.698 133.549C162.332 123.729 174.262 111.548 190.096 102.517C208.668 91.9328 227.274 88.3628 236.395 93.6289C238.242 94.6954 239.683 96.0992 240.678 97.8021C242.3 100.579 242.63 104.027 241.625 107.772C238.993 117.593 227.06 129.774 211.222 138.803C192.657 149.394 174.051 152.969 164.928 147.702ZM232.954 99.5878C227.218 96.2759 211.443 98.273 193.505 108.494C177.223 117.782 168.11 128.021 166.346 135.332C165.871 137.306 165.899 138.882 166.587 140.058C169.731 145.443 187.352 144.499 207.814 132.829C224.101 123.542 233.321 113.696 234.978 105.992C235.404 104.011 235.423 102.449 234.736 101.276C234.347 100.607 233.763 100.055 232.954 99.5878Z" fill="white"/>
<path d="M195.117 165.124C185.987 159.85 179.778 141.953 179.665 120.584C179.569 102.356 184.155 85.9319 191.34 78.7428C194.082 75.9983 197.232 74.5566 200.452 74.5721C202.427 74.5817 204.363 75.1275 206.208 76.1928C215.335 81.4623 221.54 99.362 221.653 120.736C221.752 138.964 217.166 155.388 209.978 162.581C207.236 165.322 204.087 166.762 200.873 166.747C198.9 166.736 196.962 166.189 195.117 165.124ZM202.768 82.1517C201.959 81.685 201.19 81.458 200.418 81.4517C199.058 81.445 197.671 82.1993 196.207 83.6075C190.685 88.9154 186.445 101.805 186.543 120.548C186.653 141.187 192.813 155.848 198.555 159.164C199.366 159.632 200.135 159.859 200.909 159.863C202.265 159.873 203.667 159.136 205.111 157.713C210.441 152.458 214.874 139.514 214.773 120.771C214.665 100.128 208.508 85.466 202.768 82.1517Z" fill="white"/>
<path d="M202.851 121.926C202.151 123.139 200.611 123.551 199.398 122.851C198.185 122.151 197.773 120.611 198.473 119.398C199.173 118.185 200.713 117.773 201.926 118.473C203.139 119.173 203.551 120.713 202.851 121.926Z" stroke="white" stroke-width="11"/>
<path d="M196.075 128.607C191.693 126.077 190.187 120.457 192.717 116.075C195.247 111.693 200.867 110.187 205.249 112.717C209.631 115.247 211.137 120.867 208.607 125.249C206.077 129.631 200.457 131.137 196.075 128.607ZM204.102 114.703C200.817 112.806 196.6 113.936 194.703 117.222C192.806 120.507 193.936 124.724 197.222 126.621C200.507 128.518 204.724 127.388 206.621 124.102C208.518 120.817 207.388 116.6 204.102 114.703Z" fill="white"/>
</g>
</g>
<defs>
<linearGradient id="paint0_linear_1_21" x1="156.469" y1="2.40771" x2="156.469" y2="310.592" gradientUnits="userSpaceOnUse">
<stop stop-color="#380071"/>
<stop offset="0.442708" stop-color="#9D0071" stop-opacity="0.826458"/>
<stop offset="1" stop-color="#1511D9" stop-opacity="0.72"/>
</linearGradient>
<clipPath id="clip0_1_21">
<rect width="313" height="313" fill="white"/>
</clipPath>
<clipPath id="clip1_1_21">
<rect width="91.7434" height="91.7434" fill="white" transform="translate(183.872 58) rotate(30)"/>
</clipPath>
</defs>
</svg>
